<svg width="16" height="17" viewBox="0 0 16 17" fill="none" xmlns="http://www.w3.org/2000/svg">
<g id="Frame">
<path id="Vector" d="M8 2.3C7.6318 2.3 7.33333 2.59848 7.33333 2.96667V7.63334H2.66667C2.29848 7.63334 2 7.9318 2 8.3C2 8.6682 2.29848 8.96667 2.66667 8.96667H7.33333V13.6333C7.33333 14.0015 7.6318 14.3 8 14.3C8.3682 14.3 8.66667 14.0015 8.66667 13.6333V8.96667H13.3333C13.7015 8.96667 14 8.6682 14 8.3C14 7.9318 13.7015 7.63334 13.3333 7.63334H8.66667V2.96667C8.66667 2.59848 8.3682 2.3 8 2.3Z" fill="#9FADBC"/>
</g>
</svg>
