<svg width="16" height="17" viewBox="0 0 16 17" fill="none" xmlns="http://www.w3.org/2000/svg">
<g id="Frame">
<path id="Vector" fill-rule="evenodd" clip-rule="evenodd" d="M10.9573 10.5567L13.584 13.23C13.7017 13.3572 13.7652 13.5252 13.7611 13.6984C13.757 13.8716 13.6857 14.0365 13.5622 14.158C13.4387 14.2795 13.2727 14.3482 13.0994 14.3494C12.9262 14.3507 12.7592 14.2844 12.634 14.1647L10.0087 11.494C8.99569 12.2571 7.73058 12.6068 6.46951 12.4722C5.20843 12.3376 4.04562 11.7288 3.21653 10.7691C2.38744 9.80936 1.95403 8.57045 2.00405 7.3032C2.05406 6.03595 2.58378 4.83506 3.48593 3.94368C4.38808 3.05231 5.59526 2.53706 6.86302 2.50228C8.13078 2.46749 9.36439 2.91577 10.3141 3.75633C11.2637 4.5969 11.8585 5.76694 11.9779 7.02954C12.0974 8.29214 11.7325 9.55295 10.9573 10.5567ZM6.99999 11.1667C7.97245 11.1667 8.90508 10.7804 9.59271 10.0927C10.2803 9.4051 10.6667 8.47247 10.6667 7.50001C10.6667 6.52755 10.2803 5.59492 9.59271 4.90728C8.90508 4.21965 7.97245 3.83334 6.99999 3.83334C6.02753 3.83334 5.0949 4.21965 4.40726 4.90728C3.71963 5.59492 3.33332 6.52755 3.33332 7.50001C3.33332 8.47247 3.71963 9.4051 4.40726 10.0927C5.0949 10.7804 6.02753 11.1667 6.99999 11.1667Z" fill="#8C9BAB"/>
</g>
</svg>
